<?xml version="1.0" standalone="no"?>
<!DOCTYPE svg PUBLIC "-//W3C//DTD SVG 20010904//EN"
 "http://www.w3.org/TR/2001/REC-SVG-20010904/DTD/svg10.dtd">
<svg version="1.0" xmlns="http://www.w3.org/2000/svg"
 width="1024.000000pt" height="1024.000000pt" viewBox="0 0 1024.000000 1024.000000"
 preserveAspectRatio="xMidYMid meet">

<g transform="translate(0.000000,1024.000000) scale(0.100000,-0.100000)"
fill="#000000" stroke="none">
<path d="M0 5120 l0 -5120 5120 0 5120 0 0 5120 0 5120 -5120 0 -5120 0 0
-5120z m5226 4619 c49 -22 449 -220 889 -439 440 -219 998 -495 1240 -615 242
-119 567 -280 723 -358 l282 -142 0 -2101 0 -2101 -27 -39 c-28 -41 -66 -95
-147 -211 l-50 -71 -50 43 c-77 66 -200 169 -211 177 -20 14 -191 163 -238
208 l-49 45 4 1758 5 1759 -21 13 c-44 27 -2273 1146 -2389 1199 l-77 35 -93
-46 c-50 -25 -274 -136 -497 -248 -223 -111 -457 -228 -520 -259 -63 -31 -135
-68 -160 -81 -25 -13 -303 -153 -617 -312 l-573 -288 0 -1766 0 -1767 -47 -38
c-49 -39 -109 -92 -147 -129 -12 -12 -45 -40 -75 -63 -29 -23 -91 -77 -136
-118 -110 -100 -122 -109 -139 -95 -8 7 -53 69 -102 139 -49 70 -92 129 -96
130 -4 2 -8 957 -8 2122 l0 2119 23 7 c12 3 346 167 742 364 695 345 1080 536
1610 795 258 126 499 246 531 264 54 29 310 148 325 150 3 1 46 -17 95 -40z
m2139 -2220 c12 -13 -82 -153 -335 -494 -41 -55 -95 -130 -119 -165 -25 -36
-63 -87 -85 -114 -23 -27 -54 -68 -71 -91 -62 -87 -279 -375 -327 -433 -20
-25 -47 -64 -59 -87 l-22 -42 130 -214 c132 -218 196 -322 341 -554 44 -71
109 -176 144 -232 35 -57 86 -138 113 -181 28 -42 83 -131 124 -197 73 -120
105 -168 181 -278 22 -32 40 -60 40 -63 0 -2 -197 -4 -439 -4 l-438 0 -50 78
c-58 88 -227 363 -330 532 -38 63 -91 151 -118 195 -26 44 -71 121 -100 170
-123 213 -201 344 -240 405 -58 90 -165 268 -165 275 0 5 44 70 217 318 50 73
126 182 167 242 42 61 114 164 160 230 183 260 234 334 319 459 117 172 157
229 174 243 15 12 775 14 788 2z m-3485 -548 l0 -548 63 -7 c34 -4 71 -9 82
-12 16 -4 38 18 109 106 48 61 93 116 100 123 6 7 46 55 89 107 43 52 106 129
140 170 35 41 85 104 112 139 28 35 73 91 100 125 28 33 102 125 164 204 l114
142 469 0 468 0 -70 -87 c-39 -49 -85 -106 -103 -128 -18 -22 -50 -60 -73 -85
-22 -25 -59 -70 -81 -100 -37 -51 -239 -293 -392 -471 -35 -41 -73 -85 -85
-99 -91 -108 -137 -161 -171 -198 -22 -24 -41 -48 -43 -53 -2 -5 -357 -9 -889
-9 l-884 0 2 608 c1 334 4 610 6 615 2 4 177 7 389 7 l384 0 0 -549z m919
-957 c23 -29 28 -94 11 -138 l-10 -26 -460 0 -460 0 0 -740 0 -740 -390 0
-390 0 0 835 0 835 839 0 840 0 20 -26z m216 -574 c55 -77 131 -182 168 -233
38 -51 132 -180 210 -287 153 -212 300 -411 320 -432 16 -18 71 -90 81 -105 6
-10 -94 -13 -487 -13 l-495 0 -74 128 c-111 190 -368 633 -388 667 -9 17 -31
55 -48 85 -17 30 -64 113 -106 184 -42 72 -76 133 -76 138 0 4 179 8 398 8
l397 0 100 -140z m2453 -1577 c44 -38 162 -135 262 -218 101 -82 190 -157 199
-166 9 -9 24 -20 33 -25 15 -8 4 -29 -90 -160 -182 -255 -378 -496 -622 -764
-213 -233 -550 -566 -730 -720 -35 -30 -87 -76 -114 -101 -92 -82 -337 -278
-413 -329 -12 -8 -64 -47 -116 -87 -145 -111 -638 -438 -739 -490 -5 -2 -8
198 -8 446 l0 451 108 79 c59 44 136 102 172 128 149 110 474 372 585 472 289
259 616 583 743 736 41 50 78 92 82 95 29 22 397 492 490 626 36 51 68 94 72
94 3 0 42 -30 86 -67z"/>
</g>
</svg>
